# xmcd
#
# Track frame offsets:
#	150
#	13808
#	27727
#	39695
#	54478
#	67757
#	82635
#	98439
#	113237
#	127732
#	141524
#	156213
#
# Disc length: 2265 seconds
#
# Revision: 1
# Processed by: cddbd v1.5.2PL0 Copyright (c) Steve Scherf et al.
# Submitted via: audiograbber 1.83.01
#
DISCID=9308d70c
DTITLE=Vincent and Fernando - Der Engel von Marienberg
DYEAR=2009
DGENRE=Volksmusik
TTITLE0=Der Engel von Marienberg
TTITLE1=Kleine Dinge im Leben
TTITLE2=Hasta La Vista
TTITLE3=Ein Marterl
TTITLE4=Ein Lied Aus Alter Zeit
TTITLE5=Der Gondoliere vom Canale Grande
TTITLE6=Sag niemals, du liebst nicht mehr
TTITLE7=Jeden Tag ein bisschen mehr
TTITLE8=Jedes Kind auf dieser Welt
TTITLE9=Heimweh
TTITLE10=Wenn deine Tränen getrocknet sind
TTITLE11=Das Glück mit dir
EXTD=
EXTT0=
EXTT1=
EXTT2=
EXTT3=
EXTT4=
EXTT5=
EXTT6=
EXTT7=
EXTT8=
EXTT9=
EXTT10=
EXTT11=
PLAYORDER=
